<svg xmlns="http://www.w3.org/2000/svg" viewBox="0 0 491.52 491.52" width="512" height="512"><path d="M378.88 184.026v307.2h112.64v-307.2H378.88zm92.16 286.721h-71.68v-266.24h71.68v266.24zM256 235.227v256h102.4v-256H256zm81.92 235.52h-61.44v-215.04h61.44v215.04zm-204.8-184.32v204.8h102.4v-204.8h-102.4zm81.92 184.32H153.6v-163.84h61.44v163.84zM0 347.867v143.36h112.64v-143.36H0zm92.16 122.88H20.48v-102.4h71.68v102.4zM336.975.293l-6.88 19.288 74.506 26.565L56.565 229.831l9.56 18.111L411.508 65.658l-25.558 71.683 19.29 6.882 37.83-106.101z" fill="#727475"/></svg>